<svg xmlns="http://www.w3.org/2000/svg" viewBox="0 0 1418.999 660.152"><defs><style>.cls-1,.cls-10,.cls-12,.cls-6{fill:#131a2d;}.cls-1,.cls-12,.cls-7,.cls-9{stroke:#131a2d;}.cls-1,.cls-12,.cls-5,.cls-7,.cls-9{stroke-miterlimit:10;}.cls-1{stroke-width:5.256px;}.cls-2{fill:#7d2c00;}.cls-3{fill:#fa7b28;}.cls-4{fill:#470000;opacity:0.35;}.cls-5,.cls-9{fill:none;}.cls-5{stroke:#7d2c00;stroke-width:11.989px;}.cls-7,.cls-8{fill:#2fa9f9;}.cls-12,.cls-7,.cls-9{stroke-width:8px;}.cls-10{opacity:0.3;}.cls-11{fill:#fff;}</style></defs><title>daton_logo_1</title><g id="Layer_2" data-name="Layer 2"><g id="Layer_1-2" data-name="Layer 1"><path class="cls-1" d="M183.375,494.273c0,62.591-41.218,106.861-112.051,106.861H2.628V459.654H43.235V562.359H70.408c44.882,0,72.36-27.173,72.36-68.086,0-40.606-27.478-67.779-72.36-67.779H2.628V387.413h68.7C142.157,387.413,183.375,431.989,183.375,494.273Z"/><path class="cls-1" d="M366.7,601.134H320.6l-52.82-152.658-52.82,152.658h-46.1l78.161-213.721h41.523Z"/><polygon class="cls-1" points="508.62 387.413 310.632 387.413 326.419 426.494 385.782 426.494 385.782 601.134 426.389 601.134 426.389 426.494 478.253 426.494 508.62 387.413"/><path class="cls-1" d="M687.22,494.579c0,61.368-42.133,109-103.5,109s-103.807-47.63-103.807-109,42.439-109,103.807-109S687.22,433.21,687.22,494.579Zm-41.523,0c0-39.081-23.2-68.391-61.979-68.391-39.08,0-62.284,29.31-62.284,68.391s23.2,68.391,62.284,68.391C622.494,562.97,645.7,533.659,645.7,494.579Zm-29.958,0c0,17.636-14.3,32.412-31.935,32.412a32.412,32.412,0,1,1,0-64.824C601.439,462.167,615.739,476.943,615.739,494.579Z"/><path class="cls-1" d="M828.983,387.413H869.59V603.577h-2.748L743.8,481.45V601.134H703.193V385.581h2.748L828.983,507.4Z"/><path class="cls-2" d="M1307.573,410.961A39.162,39.162,0,0,0,1297.5,417.9c-6.3,5.914-9.55,13.3-11.8,21.22,41.96,17.934,78.182,29.778,78.182,29.778-7.2-3.8-16.2-36.306-23.426-46.4C1338.356,419.559,1324.911,415.184,1307.573,410.961Z"/><path class="cls-2" d="M1105.212,555.568s-49.818,17.365-76.594,4.668c0,0,67.064-71.518,57.833-55.718C1069.9,532.856,1086.754,547.229,1105.212,555.568Z"/><path class="cls-2" d="M1212.159,507.72s-6.737-38.778-61.636-68.835,93.932,25.765,92.792,34.937S1228.89,503.935,1212.159,507.72Z"/><path class="cls-3" d="M958.263,237.213a.294.294,0,0,0-.268.2c-1.12,3.59-16.879,57.411,28.9,106.974,78.384,84.855,60.776,176.978,48.252,203.649s21.635-21.8,64.836-25.345c34.2-2.805,39.764,18.137,40.551,22.529a.307.307,0,0,0,.558.118,368.032,368.032,0,0,1,38.283-47.675c24.664-26.179,64.12-36.167,61-19.271-2.616,14.18-20.722,25.213-26.475,28.394a.308.308,0,0,0,.212.571c8.794-1.693,44.979-9.535,63.952-27.153,21.7-20.148,2.458-60.694,37-62.441,23.172-1.172,25.214,17.2,34.686,34.306a20.413,20.413,0,0,0,34.42,1.888,162.177,162.177,0,0,1,28.7-30.548.306.306,0,0,0-.121-.541c-8.068-1.8-63.661-37.362-92.88-59.393-30.677-23.128-54.411-36.2-116.487-54.02s-85.422-12.111-118.047-33.03C1052.759,255.53,1027.534,232.5,958.263,237.213Z"/><path class="cls-2" d="M965.26,242.456s-8.38,44.083,52.789,105.281c47.055,47.078,115.432,160.917,121.514,180.39,0,0-22.671-85.9-91.455-156.544C961.281,282.414,970.181,256.329,965.26,242.456Z"/><path class="cls-2" d="M982.6,244.408s4.656,87.228,128.346,147.142c114,55.222,130.68,80.951,130.68,80.951s-25.9-41.825-107.157-77.36C1030.737,349.779,997.053,297.189,982.6,244.408Z"/><path class="cls-2" d="M1324.652,415.074s-100.726-32.612-134.315-48.5-106.12-42.5-159.832-126.983c0,0,51.273,75.071,151.04,114.89C1182.332,354.8,1324.652,415.074,1324.652,415.074Z"/><path class="cls-2" d="M1203.4,486.961s7.258,16.839.423,27.89l13.655-2.122,5.6-11.8Z"/><path class="cls-4" d="M1064.962,326.706l-24.895,58.622,1.712,52.283s23.452,2.728,35.951-10.762c0,0,42.155-15.888,55.856-38.963l-32.633-9.38,7.221-21.894L1097.229,334,1077.837,320.9Z"/><path class="cls-4" d="M1086.826,284.819s47.37,9.453,48.813,9.725,84.537,19.905,84.537,19.905l76.558,32.878,61.116,42.732L1413,426.242s-40.119-18.6-91.619-44.227c-84-50.129-194.438-60.939-221.679-81.957S1086.826,284.819,1086.826,284.819Z"/><path class="cls-5" d="M958.263,237.213a.294.294,0,0,0-.268.2c-1.12,3.59-16.879,57.411,28.9,106.974,78.384,84.855,60.776,176.978,48.252,203.649s21.635-21.8,64.836-25.345c34.2-2.805,39.764,18.137,40.551,22.529a.307.307,0,0,0,.558.118,368.032,368.032,0,0,1,38.283-47.675c24.664-26.179,64.12-36.167,61-19.271-2.616,14.18-20.722,25.213-26.475,28.394a.308.308,0,0,0,.212.571c8.794-1.693,44.979-9.535,63.952-27.153,21.7-20.148,2.458-60.694,37-62.441,23.172-1.172,25.214,17.2,34.686,34.306a20.413,20.413,0,0,0,34.42,1.888,162.177,162.177,0,0,1,28.7-30.548.306.306,0,0,0-.121-.541c-8.068-1.8-63.661-37.362-92.88-59.393-30.677-23.128-54.411-36.2-116.487-54.02s-85.422-12.111-118.047-33.03C1052.759,255.53,1027.534,232.5,958.263,237.213Z"/><polygon class="cls-6" points="1002.017 562.891 1012.605 652.186 1039.791 652.186 1053.969 550.878 1002.017 562.891"/><polygon class="cls-6" points="925.354 562.891 969.43 654.867 994.096 654.867 979.844 552.596 925.354 562.891"/><path class="cls-7" d="M907.816,451.282s-31.373,10.976-11.551,63.744,53.7,67.512,70.1,64.98,3.766-90.024,3.766-90.024Z"/><path class="cls-8" d="M885.476,374.1c.1-.4-2.8,36.151,11.493,72.726,13.353,36.653,43.889,73.333,89.188,74.978-.288.241,19.362-4.093,34-24.875,15.489-20.915,25.965-58.278,27.028-127.208Q966.325,371.457,885.476,374.1Z"/><path class="cls-9" d="M885.476,374.1c.1-.4-2.8,36.151,11.493,72.726,9.943,27.294,29.414,54.6,57.414,67.448,22.6,10.369,49.631,4.247,64.542-15.651q.621-.828,1.231-1.694c15.489-20.915,25.965-58.278,27.028-127.208Q966.325,371.457,885.476,374.1Z"/><path class="cls-10" d="M912.767,476.523c.167-.017-17.233-47.145,7.344-40.638-8.313-2.2,47.142,33.318,96.993.118a9.778,9.778,0,0,1,13.794,2.97c3.348,5.544,6.316,14.09,4.613,26.061,2.564-18.021,5.22-36.054,9.4-53.817q-.677-12.936-.624-25.889-12.924,7.634-25.587,15.629-15.88,6.519-31.577,13.395-32.447-.783-64.894-1.74-18.137-10.091-35.861-20.8,1.78,18.573,4.872,37.016Q900.891,453.073,912.767,476.523Z"/><path class="cls-11" d="M893.714,398.456c-.585.336,32.647,45.3,75.3,42.726,41.457-2.535,68.573-46.727,69.184-46.422Q965.952,396.451,893.714,398.456Z"/><path class="cls-8" d="M982.986,253.3c.321.355-73.67-16.02-100.837,25.321-26.4,38.825.339,118.5,56.467,142.961a60.412,60.412,0,0,0,29.938,4.929c54.765-6.785,94.684-65.1,107.886-127.616C1075.83,298.881,1091.09,257.963,982.986,253.3Z"/><path class="cls-9" d="M982.986,253.3c.321.355-73.67-16.02-100.837,25.321-26.4,38.825.339,118.5,56.467,142.961a60.412,60.412,0,0,0,29.938,4.929c54.765-6.785,94.684-65.1,107.886-127.616C1075.83,298.881,1091.09,257.963,982.986,253.3Z"/><path class="cls-6" d="M1034.739,386.251q-5.151-8.827-9.962-17.817c-13.724-25.7-35.992-41.571-61.8-40.217h0c-25.973,1.342-51.65,21.281-63.114,53.431q-1.494,4.2-2.92,8.413c-.41.256,29.714,37.925,70.022,36.118C1014.135,424.13,1034.283,386.059,1034.739,386.251Z"/><path class="cls-10" d="M1065.661,336.247c.007.038.016.061.027.06C1065.672,336.3,1065.668,336.27,1065.661,336.247Z"/><path class="cls-10" d="M1065.661,336.247c0-.017-.005-.043-.008-.067A.216.216,0,0,0,1065.661,336.247Z"/><path class="cls-10" d="M873.469,334c.007.083.02.142.041.146C873.5,334.092,873.483,334.045,873.469,334Z"/><path class="cls-10" d="M1036.5,260.367c.086-.423-47.519,13.312-104.094-12,1.284-.568-81.432,9.6-58.94,85.627-.226-2.422,5.39-37.491,33.136-52.235.069.042,52.585,32.278,110.711,1.986,51,8.427,48.081,49.957,48.337,52.433C1065.768,332.936,1106.972,268.632,1036.5,260.367Z"/><path class="cls-11" d="M876.357,326.706q1.412-12.315,3.4-24.573c-.657-.067,14.866-47.665,108.058-39.63,85.4,9.841,82.193,42.407,82.55,42.458q2.626,3.138,5.3,6.245-.045-8.346.228-16.695a26.36,26.36,0,0,0-17.792-25.835q-16.515-5.659-32.9-11.549-25.179-.945-50.391-1.715-22.617-4.653-45.173-9.467-12.125,6.321-24.086,12.937-14.019,9.225-27.692,18.915-5.047,15.378-9.178,30.976Q872.364,317.793,876.357,326.706Z"/><path class="cls-9" d="M982.986,253.3c.321.355-73.67-16.02-100.837,25.321-26.4,38.825.339,118.5,56.467,142.961a52.835,52.835,0,0,0,27.871,5c54.762-6.826,96.751-65.221,109.953-127.685C1075.83,298.881,1091.09,257.963,982.986,253.3Z"/><path class="cls-10" d="M876.172,346c-.048.146,13.428,21.49,33.836,1.106,20.682-20.126,38.412-27.307,60.507-26.067,22.258,1.274,40.516,11.756,54.507,33.133,14.328,21.228,28.963,4.414,28.947,4.545-.3-.164-22.7,31.008-43.684,36.278-21.373,5.22-64.887-9.652-64.824-9.837q-20.371,5.631-40.611,11.648Q889.294,372,876.172,346Z"/><path class="cls-11" d="M910.665,376.743c-.453-.193,21.44-39.67,55.534-37.88,33.213,1.735,50.181,38.945,50.611,38.785-.316.17-21.53-31.9-51.119-33.311C935.45,342.891,910.333,376.549,910.665,376.743Z"/><path class="cls-10" d="M920.127,473.657c.119,1.454,60.875,71.425,107.915-12.424-.46.821-.948,53.733-42.69,57.293C941.948,522.257,919.424,473.873,920.127,473.657Z"/><path class="cls-6" d="M873.492,305.881l11.185-37.161-35.929,28.827a9.957,9.957,0,0,0-6.194,15.792l12.94,17.176a13.937,13.937,0,0,0,21.085,1.368l-2.908-17.143A30.1,30.1,0,0,1,873.492,305.881Z"/><path class="cls-6" d="M861.26,300.058l-45.338,46.266,14.9,23.586,38.354-35.455a16.165,16.165,0,0,0,1.835-21.735Z"/><path class="cls-6" d="M1073.225,328.088l-.9-54.616,35.073,29.839a9.957,9.957,0,0,1,6.194,15.792l-12.94,17.176a13.936,13.936,0,0,1-21.085,1.368Z"/><polygon class="cls-6" points="1094.887 305.823 1140.225 352.088 1125.326 373.973 1076.122 328.49 1094.887 305.823"/><path class="cls-7" d="M1139.889,347.943c.232,12.8-4.411,51.646-66.863,66.93,0,0,7.352-14.065-13.512-20.021,0,0,11.271-18.207,24.124-30.895,15.682-15.481,37.127-26.053,51.052-22.609A6.913,6.913,0,0,1,1139.889,347.943Z"/><path class="cls-10" d="M1073.354,399.476s30.939-1,65.2-55.5c0,0,15.341,42.619-58.7,69.06Z"/><path class="cls-11" d="M1068.32,392.728s35.865-43.707,65.266-45.98C1133.586,346.748,1080.32,330.647,1068.32,392.728Z"/><path class="cls-9" d="M1139.889,347.943c.232,12.8-4.411,51.646-66.863,66.93,0,0,7.352-14.065-13.512-20.021,0,0,11.271-18.207,24.124-30.895,15.682-15.481,37.127-26.053,51.052-22.609A6.913,6.913,0,0,1,1139.889,347.943Z"/><path class="cls-8" d="M1043.047,425.26a13.065,13.065,0,0,1-3.26-.385l-2.385-.616-.524-2.405a6.73,6.73,0,0,1,.307-3.536,6.974,6.974,0,0,1-5.046-3.055,6.841,6.841,0,0,1-.846-1.747,7.1,7.1,0,0,1-3.448-5.982,6.813,6.813,0,0,1,1.78-5.249,8.966,8.966,0,0,1,4.068-2.412c-2.735-1.593-4.219-3.624-4.3-5.984a4.345,4.345,0,0,1,1.242-3.189c1.424-1.475,3.6-1.972,8.6-1.972,3.527,0,7.208.275,7.363.286l.374.028,12.891,3.461.1.034a35.332,35.332,0,0,1,11.828,7.035,14.455,14.455,0,0,1,4.525,10.283,13.685,13.685,0,0,1-4.045,10,16.048,16.048,0,0,1-11.516,4.775,22.15,22.15,0,0,1-7.772-1.533A29.682,29.682,0,0,1,1043.047,425.26Z"/><path class="cls-6" d="M1039.241,392.728c3.417,0,7.062.274,7.062.274l12.422,3.335a31.269,31.269,0,0,1,10.335,6.149,10.159,10.159,0,0,1,.4,14.527,12,12,0,0,1-8.7,3.613,19.25,19.25,0,0,1-7.783-1.858s-5.423,2.492-9.934,2.492a9.107,9.107,0,0,1-2.26-.258s-.808-3.707,7.049-5.737l-.211-1.563-9.484.649c-.07,0-.139.007-.208.007a2.926,2.926,0,0,1-2.755-3.972c.012-.029.025-.058.037-.088a2.843,2.843,0,0,1-.644.068c-.923,0-2.532-.4-2.737-3.132-.29-3.86,5.5-3.927,5.5-3.927l11.006-1.1s-.308-2.389-6-3.533-8.886-3.192-8.944-4.922c-.027-.813,2.822-1.028,5.849-1.028m0-8h0c-5.317,0-8.9.522-11.481,3.19a8.313,8.313,0,0,0-2.363,6.106,9.8,9.8,0,0,0,1.675,5.148q-.2.2-.395.409a10.871,10.871,0,0,0-2.821,8.253,11.482,11.482,0,0,0,4.21,8.354,11.018,11.018,0,0,0,4.7,4.879,9.32,9.32,0,0,0,.2,1.64l1.05,4.812,4.768,1.23a17.111,17.111,0,0,0,4.258.511,31.783,31.783,0,0,0,9.987-1.916,25.288,25.288,0,0,0,7.73,1.282,19.974,19.974,0,0,0,14.336-5.935,17.661,17.661,0,0,0,5.226-12.891,18.477,18.477,0,0,0-5.786-13.143,39.034,39.034,0,0,0-13.321-7.921l-.208-.068-.211-.057-12.422-3.335-.725-.195-.749-.056c-.161-.012-3.986-.3-7.662-.3Z"/><path class="cls-10" d="M1071.317,404.142s.88,14.5-18.62,11.5l-13.834,6.334,16.23,1.166,12.937-.833s3.911-6.706,4.706-7.436S1071.317,404.142,1071.317,404.142Z"/><path class="cls-10" d="M1048.045,402.211s.9-4.9-6.182-6.152-8.761-2.3-8.761-2.3S1026.143,398.78,1048.045,402.211Z"/><path class="cls-10" d="M1047.334,413.7s-11.173-.4-12.447-3.316c0,0,3.393-1.744,4.476-1.744h8.719s-9.552-1.416-11.635-.916-3.392,1.953-4.863-.107-1.887,6.023-1.887,6.023l4.166,5Z"/><circle class="cls-7" cx="970.432" cy="141" r="137"/><path class="cls-10" d="M841.05,186.151s78.089,103.015,188.491,49.191c101.534-49.5,41.733-187.068,41.733-187.068s91.833,109.462-20.171,203.456C1051.1,251.73,913,331.245,841.05,186.151Z"/><path class="cls-11" d="M844.429,87.146S872.4,24.073,927.416,10.9s100.738-6.245,137.21,30.623C1064.626,41.522,940.376-35.859,844.429,87.146Z"/><circle class="cls-9" cx="970.432" cy="141" r="137"/><path class="cls-9" d="M832.834,137.15s59.4-82.509,175.061-47.066c85.652,28.506,94.517,88.507,94.517,88.507"/><polyline class="cls-12" points="884.724 96.342 896.038 116.589 908.902 87.146"/><polyline class="cls-12" points="981.852 81.238 990.107 108.359 1002.737 88.572"/><path class="cls-6" d="M938.033,167.428l63.99-19.873S981.366,190.379,938.033,167.428Z"/><path class="cls-7" d="M812.519,340.8c-2.119,12.628-3.261,51.732,56.251,76.067,0,0-5.2-15,16.319-17.806,0,0-8.46-19.672-19.3-34.118-13.225-17.627-32.874-31.249-47.155-29.9A6.914,6.914,0,0,0,812.519,340.8Z"/><path class="cls-10" d="M825.042,338.654s-8.663,37.634,46.766,62.59l-9.534,12.792L830.54,392.665l-17.677-32.311-2.162-23.84Z"/><path class="cls-11" d="M826.437,341.727s24.971,13.337,50.586,53.978C877.023,395.705,865.634,345.556,826.437,341.727Z"/><path class="cls-9" d="M812.519,340.8c-2.119,12.628-3.261,51.732,56.251,76.067,0,0-5.2-15,16.319-17.806,0,0-8.46-19.672-19.3-34.118-13.225-17.627-32.874-31.249-47.155-29.9A6.914,6.914,0,0,0,812.519,340.8Z"/><path class="cls-8" d="M879.238,424.815A16.069,16.069,0,0,1,868.8,420.95a13.692,13.692,0,0,1-4.858-9.629A14.462,14.462,0,0,1,867.6,400.7a35.352,35.352,0,0,1,11.206-7.989l.1-.043,12.56-4.516.371-.059a87.908,87.908,0,0,1,10.776-1.06c5.418,0,6.676,2.445,6.777,4.5.116,2.354-1.194,4.5-3.782,6.312,3.973.834,6.426,3.46,6.455,7.156a7.392,7.392,0,0,1-2,5.482,6.187,6.187,0,0,1-.941.78,6.857,6.857,0,0,1-.816,2,6.944,6.944,0,0,1-4.657,3.257,6.7,6.7,0,0,1,.6,3.5l-.323,2.441-2.325.81a14.328,14.328,0,0,1-4.7.713,32.574,32.574,0,0,1-8.6-1.4,21.2,21.2,0,0,1-9.058,2.232Z"/><path class="cls-6" d="M902.613,391.032c1.6,0,2.756.18,2.781.694.086,1.729-2.929,4.033-8.5,5.645s-5.686,4.017-5.686,4.017l11.059.181s.177-.012.47-.012c1.378,0,5.306.28,5.331,3.471.024,3.029-1.9,3.359-2.734,3.359a2.43,2.43,0,0,1-.381-.026l.044.085a2.93,2.93,0,0,1-2.625,4.2l-9.5.138-.081,1.575c8,1.372,7.5,5.134,7.5,5.134a10.392,10.392,0,0,1-3.383.49,30.916,30.916,0,0,1-8.953-1.707,18.219,18.219,0,0,1-8.706,2.542,11.983,11.983,0,0,1-7.866-2.928,10.158,10.158,0,0,1-.8-14.51,31.248,31.248,0,0,1,9.79-6.983l12.1-4.351a84.968,84.968,0,0,1,10.147-1.011m0-8a89.943,89.943,0,0,0-11.406,1.11l-.741.118-.707.254-12.1,4.352-.206.074-.2.085a39.026,39.026,0,0,0-12.62,9,18.466,18.466,0,0,0-4.678,13.576,17.653,17.653,0,0,0,6.274,12.414,20.021,20.021,0,0,0,13.013,4.8,24.373,24.373,0,0,0,9.376-2,34.614,34.614,0,0,0,8.283,1.162,18.285,18.285,0,0,0,6.016-.936l4.65-1.62.648-4.882a9.285,9.285,0,0,0,.066-1.644,11.081,11.081,0,0,0,4.293-5.283q.169-.154.331-.318a11.309,11.309,0,0,0,3.162-8.332,11.041,11.041,0,0,0-3.923-8.361,9.813,9.813,0,0,0,1.245-5.273c-.069-1.386-.91-8.3-10.772-8.3Z"/><path class="cls-10" d="M868.17,405.239s.323,14.523,19.508,9.919l14.31,5.167-16.077,2.506-12.962.24s-4.453-6.36-5.3-7.022S868.17,405.239,868.17,405.239Z"/><path class="cls-10" d="M891.2,401.388s-1.3-4.811,5.652-6.642,8.54-3.02,8.54-3.02S912.745,396.157,891.2,401.388Z"/><path class="cls-10" d="M892.862,412.781s11.1-1.329,12.13-4.335c0,0-3.526-1.457-4.605-1.367l-8.689.721s9.4-2.2,11.519-1.876,3.542,1.666,4.838-.509,2.379,5.847,2.379,5.847l-3.739,5.327Z"/><path class="cls-7" d="M1035.761,458.212c4.2-5.681,14.993,6.536,17.33,9.645,7.5,9.969,8.763,24.185,8.16,36.292-1.368,27.454-10.909,72.734-44.616,76.826-6.992.849-14.952-15.279-21.094-31.355a54.286,54.286,0,0,1,9.111-54.176C1018.823,478.5,1035.633,458.386,1035.761,458.212Z"/><path class="cls-6" d="M995,659.727c0-6.388-5.453-12.1-11.462-14.263-12.119-4.368-32.2-10.838-42.621-9.945-15.552,1.333-28.763,24.208-28.763,24.208H995Z"/><path class="cls-6" d="M996.744,659.84s2.821-25.508,29.534-25.508c26.608,0,30.182,25.82,30.182,25.82Z"/><path class="cls-10" d="M953.579,518.731s12.619,47.193-28.225,35.86L937.3,571.577l33.211,13.014s3.409-19.832,3.565-21.38.706-36.953.706-36.953l14.062-4.447,1.667,9.447,18,49.749,20.744-3.931,19.311-20.613s-40.388-.378-40.055-33.2,7.726-41.671,7.726-41.671l-21.235,32-8.042,3.667-18.116,3.333Z"/><path class="cls-11" d="M898.178,470.258s-12.667,23,17.666,69.666C915.844,539.924,895.554,497.924,898.178,470.258Z"/><path class="cls-11" d="M1019.511,486.591l20.556-25.358s23.36,10.691,13.9,66.691c0,0,6.654-49.666-13.9-62Z"/><path class="cls-8" d="M967.422,352.872c2.984.278,5.99.468,8.977.856a36.727,36.727,0,0,1,12.232,3.433,14.761,14.761,0,0,1,2.906,1.951c2.384,2.065,2.458,4.494.267,6.764a19.423,19.423,0,0,1-7.782,4.517,69.739,69.739,0,0,1-24.374,3.687c-6.464-.079-12.832-.686-18.821-2.947a22.519,22.519,0,0,1-6.019-3.458c-2.194-1.755-2.1-4.233-.1-6.335a19.355,19.355,0,0,1,9.243-5.066c4.032-1.1,8.181-1.8,12.3-2.669l1.587-.339Z"/><path class="cls-8" d="M959.425,426.707c-3.026-.4-6.055-.713-9.044-1.226a37.606,37.606,0,0,1-12.019-3.922c-3-1.662-4.939-3.893-4.538-7.712a45.757,45.757,0,0,0-.032-5.16c9.428,5.4,19.722,6.473,30.273,6.359,10.623-.116,21.148-1.423,30.719-7.133.1,2.841.518,5.74.155,8.523-.179,1.374-1.605,2.782-2.818,3.723-3.518,2.73-7.753,3.934-12.03,4.807-3.132.639-6.326.953-9.479,1.419-.451.066-.894.18-1.34.272Z"/><path class="cls-8" d="M994.323,390.059a67.252,67.252,0,0,1,.176,7.383,6.555,6.555,0,0,1-1.6,3.547c-2.033,2.314-4.86,3.471-7.709,4.453a70.108,70.108,0,0,1-26.818,3.3c-6.428-.337-12.714-1.286-18.614-3.883a22.226,22.226,0,0,1-2.623-1.421c-2.38-1.456-3.775-3.436-3.527-6.471.147-1.789-.014-3.6-.038-5.521,9.408,5.274,19.653,6.22,30.141,6.011C974.264,397.247,984.726,395.88,994.323,390.059Z"/><path class="cls-8" d="M933.361,374.409c18.389,8.315,41.954,7.685,60.224-1.813.095,2.77.49,5.54.153,8.221-.164,1.308-1.492,2.687-2.643,3.6-3.543,2.814-7.815,4.1-12.143,5.042-12.144,2.652-24.159,2.8-35.9-.583a32.059,32.059,0,0,1-6.927-3.227,5.357,5.357,0,0,1-2.715-5.261C933.511,378.453,933.387,376.51,933.361,374.409Z"/></g></g></svg>